<?xml version="1.0" encoding="utf-8"?>
<!-- Generator: Adobe Illustrator 24.0.0, SVG Export Plug-In . SVG Version: 6.00 Build 0)  -->
<svg version="1.0" id="Layer_1" xmlns="http://www.w3.org/2000/svg" xmlns:xlink="http://www.w3.org/1999/xlink" x="0px" y="0px"
	 viewBox="0 0 768 768" style="enable-background:new 0 0 768 768;" xml:space="preserve">
<style type="text/css">
	.st0{fill:#00E175;}
	.st1{fill:#66FFAF;}
	.st2{fill:#0070EE;}
	.st3{fill:#02ADFF;}
</style>
<g>
	<g>
		<polygon class="st0" points="592.77,663.03 592.77,193.93 767.5,193.93 767.5,576.13 593.01,663.15 		"/>
		<path class="st0" d="M767,194.43v381.39l-173.73,86.64v-86.01v-87.26V194.43H767 M768,193.43H592.27v295.77v87.26v86.89l0.74,0.36
			l174.96-87.26H768V193.43L768,193.43z"/>
	</g>
	<g>
		<polygon class="st1" points="421.17,194.32 593.17,107.58 766.07,194.33 594.08,281.07 		"/>
		<path class="st1" d="M593.17,108.14l171.79,86.19l-170.88,86.18l-171.79-86.19L593.17,108.14 M593.16,107.02l-173.1,87.3
			l174.02,87.3l173.04-87.27l-0.06-0.1L593.16,107.02L593.16,107.02z"/>
	</g>
	<g>
		<polygon class="st2" points="208.77,469.6 208.77,86.91 383.5,86.91 383.5,382.7 209.01,469.72 		"/>
		<path class="st2" d="M383,87.41v294.98l-173.73,86.64v-85.97v-87.3V87.41H383 M384,86.41H208.27v209.36v87.3v86.85l0.74,0.36
			l174.88-87.21H384V86.41L384,86.41z"/>
	</g>
	<g>
		<polygon class="st3" points="209.65,87.3 381.64,0.56 554.55,87.31 382.56,174.05 		"/>
		<path class="st3" d="M381.64,1.12l171.79,86.19l-170.88,86.18L210.76,87.3L381.64,1.12 M381.64,0l-173.1,87.3l174.02,87.3
			L555.6,87.34l-0.06-0.1L381.64,0L381.64,0z"/>
	</g>
	<g>
		<polygon class="st2" points="384.5,681.09 384.5,385.3 558.99,298.28 559.23,298.4 559.23,681.09 		"/>
		<path class="st2" d="M558.73,298.97v85.97v87.3v208.36H385V385.61L558.73,298.97 M558.99,297.72l-174.88,87.21H384v296.66h175.73
			V472.24v-87.3v-86.85L558.99,297.72L558.99,297.72z"/>
	</g>
	<g>
		<polygon class="st3" points="213.45,680.7 385.44,593.95 558.35,680.7 386.36,767.44 		"/>
		<path class="st3" d="M385.44,594.51l171.79,86.19l-170.88,86.18l-171.79-86.19L385.44,594.51 M385.44,593.39L212.4,680.66
			l0.06,0.1L386.36,768l173.1-87.3L385.44,593.39L385.44,593.39z"/>
	</g>
	<g>
		<polygon class="st0" points="0.5,575.95 0.5,193.75 174.99,106.73 175.23,106.85 175.23,575.95 		"/>
		<path class="st0" d="M174.73,107.42v86.01v87.26v294.77H1V194.06L174.73,107.42 M174.99,106.17L0.03,193.43H0v383.02h175.73
			V280.68v-87.26v-86.89L174.99,106.17L174.99,106.17z"/>
	</g>
	<g>
		<polygon class="st1" points="1.93,575.55 173.92,488.81 346.82,575.55 174.83,662.3 		"/>
		<path class="st1" d="M173.92,489.37l171.79,86.19l-170.88,86.18L3.04,575.55L173.92,489.37 M173.92,488.25L0.88,575.52l0.06,0.1
			l173.89,87.24l173.1-87.3L173.92,488.25L173.92,488.25z"/>
	</g>
</g>
</svg>
