<?xml version="1.0" encoding="utf-8"?>
<!-- Generator: Adobe Illustrator 24.0.0, SVG Export Plug-In . SVG Version: 6.00 Build 0)  -->
<svg width="25" viewBox="0 0 25 42" version="1.0" id="Layer_1" xmlns="http://www.w3.org/2000/svg" xmlns:xlink="http://www.w3.org/1999/xlink" x="0px" y="0px"
	 viewBox="0 0 1366 768" style="enable-background:new 0 0 1366 768;" xml:space="preserve">
<style type="text/css">
	.st0{fill:url(#SVGID_1_);}
	.st1{stroke:#000000;stroke-miterlimit:10;}
	.st2{fill:#00E175;}
	.st3{fill:#66FFAF;}
	.st4{fill:#0070EE;}
	.st5{fill:#02ADFF;}
</style>
<linearGradient id="SVGID_1_" gradientUnits="userSpaceOnUse" x1="381.5" y1="346" x2="914.5" y2="346">
	<stop  offset="0" style="stop-color:#027BE6"/>
	<stop  offset="0.1125" style="stop-color:#027ADD"/>
	<stop  offset="0.299" style="stop-color:#0076C3"/>
	<stop  offset="0.3324" style="stop-color:#0075BE"/>
	<stop  offset="0.6397" style="stop-color:#1E9CD7"/>
	<stop  offset="0.9944" style="stop-color:#00DE7D"/>
</linearGradient>
<path class="st0" d="M865.96,612.5H430.04c-26.81,0-48.54-21.73-48.54-48.54V128.04c0-26.81,21.73-48.54,48.54-48.54h435.91
	c26.81,0,48.54,21.73,48.54,48.54v435.91C914.5,590.77,892.77,612.5,865.96,612.5z"/>
<path class="st1" d="M846.96,594.5H448.04c-26.81,0-48.54-21.73-48.54-48.54V147.04c0-26.81,21.73-48.54,48.54-48.54h398.91
	c26.81,0,48.54,21.73,48.54,48.54v398.91C895.5,572.77,873.77,594.5,846.96,594.5z"/>
<g>
	<g>
		<polygon class="st2" points="744.5,244.5 824.5,244.5 824.5,447.7 744.5,493.8 		"/>
		<path class="st2" d="M824,245v202.41l-79,45.52V448v-46.47V245H824 M825,244h-81v157.53V448v46.28l0.34,0.19L824.99,448H825V244
			L825,244z"/>
	</g>
	<g>
		<polygon class="st3" points="665.62,244.48 744.41,198.56 823.63,244.48 744.83,290.4 		"/>
		<path class="st3" d="M744.41,199.14l78.22,45.34l-77.8,45.34l-78.22-45.34L744.41,199.14 M744.41,197.98l-79.79,46.5l80.21,46.5
			l79.76-46.48l-0.03-0.05L744.41,197.98L744.41,197.98z"/>
	</g>
	<g>
		<polygon class="st4" points="567.5,187.5 647.5,187.5 647.5,344.68 567.5,390.78 		"/>
		<path class="st4" d="M647,188v156.39l-79,45.52V345v-46.49V188H647 M648,187h-81v111.51V345v46.26l0.34,0.19L647.95,345H648V187
			L648,187z"/>
	</g>
	<g>
		<polygon class="st5" points="568.12,187.48 646.91,141.56 726.13,187.48 647.33,233.4 		"/>
		<path class="st5" d="M646.91,142.14l78.22,45.34l-77.8,45.34l-78.22-45.34L646.91,142.14 M646.91,140.98l-79.79,46.5l80.21,46.5
			l79.76-46.48l-0.03-0.05L646.91,140.98L646.91,140.98z"/>
	</g>
	<g>
		<polygon class="st4" points="648.5,503.5 648.5,346.32 728.5,300.22 728.5,503.5 		"/>
		<path class="st4" d="M728,301.08V346v46.49V503h-79V346.61L728,301.08 M728.66,299.55L648.05,346H648v158h81V392.49V346v-46.26
			L728.66,299.55L728.66,299.55z"/>
	</g>
	<g>
		<polygon class="st5" points="569.87,503.52 648.67,457.6 727.88,503.52 649.09,549.44 		"/>
		<path class="st5" d="M648.67,458.18l78.22,45.34l-77.8,45.34l-78.22-45.34L648.67,458.18 M648.66,457.02l-79.76,46.48l0.03,0.05
			l80.15,46.46l79.79-46.5L648.66,457.02L648.66,457.02z"/>
	</g>
	<g>
		<polygon class="st2" points="471.5,447.5 471.5,244.3 551.5,198.2 551.5,447.5 		"/>
		<path class="st2" d="M551,199.06V244v46.47V447h-79V244.59L551,199.06 M551.66,197.53L471.01,244H471v204h81V290.47V244v-46.28
			L551.66,197.53L551.66,197.53z"/>
	</g>
	<g>
		<polygon class="st3" points="472.37,447.52 551.17,401.6 630.38,447.52 551.59,493.44 		"/>
		<path class="st3" d="M551.17,402.18l78.22,45.34l-77.8,45.34l-78.22-45.34L551.17,402.18 M551.16,401.02l-79.76,46.48l0.03,0.05
			l80.15,46.46l79.79-46.5L551.16,401.02L551.16,401.02z"/>
	</g>
</g>
</svg>
